<svg width="200" height="200" viewBox="0 0 200 200" fill="none" xmlns="http://www.w3.org/2000/svg">
<path d="M86.5867 166.667C85.7329 149.999 76.5367 134.884 62.1267 126.463L39.1 100.88C36.0029 97.3708 31.1996 95.895 26.6667 97.06V53.3333C26.6667 45.9696 20.6971 40 13.3333 40C5.96958 40 0 45.9696 0 53.3333V116.423C0.00333333 121.524 1.30292 126.54 3.77667 131L33.3333 184.197V196.667C33.3333 198.507 34.8258 200 36.6667 200H83.3333C85.1742 200 86.6667 198.507 86.6667 196.667V166.667H86.5867ZM80 193.333H40V183.333C40 182.766 39.8554 182.209 39.58 181.713L9.60333 127.757C7.68083 124.288 6.67042 120.389 6.66667 116.423V53.3333C6.66667 49.6512 9.65125 46.6667 13.3333 46.6667C17.0154 46.6667 20 49.6512 20 53.3333V101.177C15.8292 106.024 15.925 113.219 20.2233 117.953L47.5333 148L52.4667 143.513L25.1567 113.47C22.98 111.076 23.0679 107.394 25.3567 105.107C27.7208 102.74 31.5558 102.739 33.9221 105.103C33.9992 105.18 34.0737 105.259 34.1467 105.34L57.5233 131.313C57.8208 131.613 58.1571 131.87 58.5233 132.08C71.7896 139.681 79.9804 153.794 80 169.083V193.333Z" fill="#0080C7" fill-opacity="0.9"/>
<path d="M186.667 40C179.303 40 173.333 45.9696 173.333 53.3333V97.06C172.253 96.7867 171.141 96.6546 170.027 96.6667C166.532 96.7446 163.227 98.2692 160.9 100.877L137.88 126.453C123.45 134.86 114.246 149.988 113.413 166.667H113.333V196.667C113.333 198.507 114.826 200 116.667 200H163.333C165.174 200 166.667 198.507 166.667 196.667V184.19L195.857 131.283C198.568 126.673 199.998 121.422 200 116.073V53.3333C200 45.9696 194.03 40 186.667 40ZM193.333 116.073C193.328 120.264 192.2 124.377 190.067 127.983L160.4 181.723C160.133 182.218 159.995 182.772 160 183.333V193.333H120V169.083C120.041 153.734 128.301 139.583 141.647 132C141.957 131.824 142.237 131.599 142.477 131.333L165.853 105.333C168.098 102.848 171.933 102.653 174.418 104.898C176.904 107.143 177.098 110.978 174.853 113.463L147.533 143.507L152.467 148L179.777 117.96C184.079 113.225 184.174 106.025 180 101.177V53.3333C180 49.6512 182.984 46.6667 186.667 46.6667C190.349 46.6667 193.333 49.6512 193.333 53.3333V116.073Z" fill="#0080C7" fill-opacity="0.9"/>
<path d="M140 83.3333H133.333C121.376 83.3462 110.177 89.1946 103.333 99V76.6667H106.667C126.907 76.6429 143.31 60.2404 143.333 40C143.333 38.1592 141.841 36.6667 140 36.6667H133.333C121.376 36.6796 110.177 42.5279 103.333 52.3333V30H106.667C121.388 29.9833 133.317 18.0542 133.333 3.33333C133.333 1.4925 131.841 0 130 0H123.333C113.626 0.00583333 104.689 5.28667 100 13.7867C95.3113 5.28667 86.3742 0.00583333 76.6667 0H70.0001C68.1592 0 66.6667 1.4925 66.6667 3.33333C66.6834 18.0542 78.6126 29.9833 93.3334 30H96.6667V52.3333C89.823 42.5279 78.6242 36.6796 66.6667 36.6667H60.0001C58.1592 36.6667 56.6667 38.1592 56.6667 40C56.6905 60.2404 73.093 76.6429 93.3334 76.6667H96.6667V99C89.823 89.1946 78.6242 83.3462 66.6667 83.3333H60.0001C58.1592 83.3333 56.6667 84.8258 56.6667 86.6667C56.6905 106.907 73.093 123.31 93.3334 123.333H96.6667V150H103.333V123.333H106.667C126.907 123.31 143.31 106.907 143.333 86.6667C143.333 84.8258 141.841 83.3333 140 83.3333ZM133.333 43.3333H136.483C134.767 58.5088 121.939 69.9817 106.667 70H103.517C105.233 54.8246 118.061 43.3517 133.333 43.3333ZM123.333 6.66667H126.39C124.75 16.2833 116.422 23.3212 106.667 23.3333H103.61C105.25 13.7167 113.578 6.67875 123.333 6.66667ZM93.3334 23.3333C83.578 23.3212 75.2497 16.2833 73.6101 6.66667H76.6667C86.4222 6.67875 94.7505 13.7167 96.3901 23.3333H93.3334ZM93.3334 70C78.0613 69.9817 65.2334 58.5088 63.5167 43.3333H66.6667C81.9388 43.3517 94.7667 54.8246 96.4834 70H93.3334ZM93.3334 116.667C78.0613 116.648 65.2334 105.175 63.5167 90H66.6667C81.9388 90.0183 94.7667 101.491 96.4834 116.667H93.3334ZM106.667 116.667H103.517C105.233 101.491 118.061 90.0183 133.333 90H136.483C134.767 105.175 121.939 116.648 106.667 116.667Z" fill="#0080C7" fill-opacity="0.9"/>
</svg>
