<svg width="200" height="200" viewBox="0 0 200 200" fill="none" xmlns="http://www.w3.org/2000/svg">
<path d="M188.705 26.8859L180.159 19.3603L188.705 11.8362C190.034 10.6643 190.489 8.83787 189.865 7.18077C189.238 5.52215 187.689 4.45098 185.918 4.45098H150.551V2.93121C150.551 1.31225 149.239 0 147.62 0C146.001 0 144.688 1.31225 144.688 2.93121V42.4636L120.615 55.5358C120.482 54.4768 120.165 53.4362 119.663 52.4566L116.27 45.8343C113.942 41.2871 108.348 39.4851 103.804 41.812L101.181 43.1548C98.9777 44.284 97.3466 46.2005 96.5867 48.5564C95.8268 50.9108 96.0297 53.4209 97.1589 55.6228L100.551 62.2466C101.343 63.7923 102.513 65.016 103.89 65.8736C102.089 68.2982 101.235 71.2798 100.356 74.3773L99.7239 76.6142C99.2829 78.1721 100.189 79.7926 101.747 80.2321C102.013 80.3084 102.281 80.3435 102.545 80.3435C103.824 80.3435 104.999 79.5012 105.365 78.2088L105.997 75.9764C107.282 71.4461 108.07 69.0199 110.582 67.6558L115.085 65.2098L115.64 64.926C115.825 64.8314 115.997 64.7246 116.173 64.6193L148.265 47.1923C148.062 51.2038 145.903 54.9941 142.348 57.1532L121.478 69.8332C121.454 69.847 121.429 69.8607 121.407 69.876L114.911 73.8219C113.528 74.6626 113.088 76.4662 113.928 77.8502C114.72 79.1548 116.368 79.6187 117.712 78.9641L112.784 93.8627L109.181 95.3398L99.3851 99.3544L102.208 89.3751C102.647 87.8172 101.743 86.1967 100.185 85.7558C98.6253 85.3132 97.0063 86.2211 96.5653 87.7791L92.1052 103.552C92.0472 103.755 92.0091 103.978 91.9999 104.19L90.8326 125.631C90.7975 126.449 90.9715 127.995 90.593 128.793L77.6292 156.067H68.2084C62.6894 156.067 58.2002 160.556 58.2002 166.073V174.534C56.9368 173.956 55.5345 173.632 54.0559 173.632H30.1317C24.6142 173.632 20.125 178.12 20.125 183.639V194.137H13.0877C11.4687 194.137 10.1565 195.449 10.1565 197.068C10.1565 198.687 11.4687 200 13.0877 200H185.915C187.533 200 188.846 198.687 188.846 197.068C188.846 195.449 187.533 194.137 185.915 194.137H178.291V118.583C178.291 113.066 173.802 108.577 168.285 108.577H150.551V57.4401C153.801 53.0349 155.005 47.261 153.496 41.7739C153.259 40.9118 152.641 40.2038 151.817 39.8544C151.413 39.6819 150.98 39.6056 150.551 39.6224V34.2712H185.916C187.689 34.2712 189.238 33.2 189.863 31.5429C190.489 29.8858 190.034 28.0578 188.705 26.8859ZM102.167 50.357C102.446 49.4918 103.044 48.7868 103.853 48.3733L106.476 47.0305C106.97 46.7773 107.498 46.6567 108.02 46.6567C109.256 46.6567 110.451 47.3327 111.052 48.5061L114.446 55.1299C115.237 56.6771 114.725 58.5524 113.316 59.5L112.361 60.0173L110.346 61.0503C108.678 61.9048 106.624 61.2426 105.769 59.5732L102.376 52.9509C101.962 52.1422 101.888 51.2206 102.167 50.357ZM96.2769 156.968C95.2805 156.514 94.1972 156.216 93.0589 156.111L96.2769 151.837V156.968ZM110.194 133.349C111.604 131.66 111.993 129.687 112.308 128.097C112.387 127.719 113.834 119.818 113.834 119.818C113.834 119.818 115.202 120.671 115.346 120.732C115.445 120.776 115.515 120.874 115.526 120.988L117.12 137.198H107.297L110.194 133.349ZM127.528 117.17L125.053 137.184H123.01L121.361 120.414C121.15 118.266 119.835 116.391 117.908 115.458L114.96 113.589L116.924 102.705C116.924 102.705 125.197 112.533 125.389 112.784C127.101 115.01 127.687 115.901 127.528 117.17ZM95.8665 131.357C96.4585 129.574 96.7332 127.76 96.6874 125.915L97.7525 106.36L111.31 100.804L108.846 114.454C108.838 114.491 108.83 114.529 108.826 114.566L106.787 125.853C106.522 127.022 106.29 128.795 105.56 129.757L85.753 156.067H84.1203L95.8665 131.357ZM25.9875 183.638C25.9875 181.353 27.846 179.495 30.1317 179.495H54.0559C56.3417 179.495 58.2018 181.353 58.2018 183.638V194.137H25.9875V183.638ZM64.0626 183.638V166.073C64.0626 163.788 65.9227 161.929 68.2084 161.929H92.1327C94.4184 161.929 96.2769 163.788 96.2769 166.073V194.137H64.0642V183.638H64.0626ZM172.429 118.583V194.137H140.216V176.562C140.216 174.943 138.904 173.631 137.285 173.631C135.664 173.631 134.352 174.943 134.352 176.562V194.137H102.139V147.203C102.139 144.919 103.998 143.06 106.284 143.06H130.208C132.494 143.06 134.352 144.919 134.352 147.203V161.897C134.352 163.516 135.664 164.828 137.283 164.828C138.904 164.828 140.215 163.516 140.215 161.897V118.583C140.215 116.298 142.075 114.439 144.36 114.439H147.589C147.598 114.439 147.609 114.441 147.62 114.441C147.629 114.441 147.639 114.439 147.649 114.439H168.283C170.569 114.439 172.429 116.299 172.429 118.583ZM144.36 108.577C138.843 108.577 134.354 113.066 134.354 118.583V138.099C133.304 137.62 132.159 137.317 130.956 137.228L133.347 117.892C133.817 114.123 131.894 111.625 130.035 109.208C129.839 108.952 118.445 95.4237 118.445 95.4237L125.435 74.2903L144.688 62.593V108.577H144.36ZM150.551 28.4072V10.3149H181.561L174.882 16.1956C173.973 16.9967 173.451 18.1503 173.451 19.3618C173.451 20.5734 173.973 21.7269 174.882 22.528L181.561 28.4088H150.551V28.4072Z" fill="#0080C7" fill-opacity="0.9"/>
</svg>
