<svg width="200" height="200" viewBox="0 0 200 200" fill="none" xmlns="http://www.w3.org/2000/svg">
<g clip-path="url(#clip0)">
<path d="M65.9943 28.028L65.9948 28.0281C72.9783 29.3488 79.711 24.7552 81.0296 17.7681C82.3478 10.7788 77.7583 4.04696 70.7758 2.72616L65.9943 28.028ZM65.9943 28.028C59.0006 26.7067 54.4043 19.9782 55.7268 12.9913L55.7271 12.9897M65.9943 28.028L55.7271 12.9897M55.7271 12.9897C57.0449 6.00424 63.7827 1.40803 70.7747 2.72594L55.7271 12.9897Z" stroke="#0080C7" stroke-opacity="0.9" stroke-width="5"/>
<path d="M30.0942 93.1307L39.0248 45.8495L65.7353 47.1549C64.9556 46.2278 64.225 45.3868 63.8089 44.9863L59.872 47.969L71.4331 69.5234L71.6364 69.9025L71.9547 70.1918C81.1324 78.5333 83.3561 80.5534 84.8967 81.9529C86.0045 82.9592 86.759 83.6447 89.492 86.129L92.433 88.8024L93.5693 84.9939C94.1575 83.0223 95.982 81.8014 97.9397 82.0807L125.432 86.0063L126.035 86.0925L126.61 85.8913L150.561 77.514L149.776 73.7911C150.562 73.4275 151.406 73.1544 152.296 72.9867L152.298 72.9862L157.848 71.9351C157.848 71.9351 157.848 71.935 157.848 71.935C160.647 71.4077 163.546 72.0128 165.897 73.6175C168.248 75.2218 169.865 77.6956 170.396 80.4985L179.487 128.634L179.487 128.635C179.818 130.387 179.958 132.171 179.905 133.955L179.138 159.448L179.127 159.828L179.229 160.195L187.719 190.658C188.518 193.527 186.841 196.499 183.972 197.298L183.962 197.301C183.484 197.436 183.001 197.5 182.52 197.5C180.164 197.5 177.995 195.934 177.331 193.555L168.531 161.986C168.53 161.983 168.529 161.981 168.529 161.979C168.389 161.462 168.322 160.93 168.33 160.405C168.33 160.403 168.33 160.402 168.33 160.4L168.748 140.419L168.829 136.574L165.282 138.062L144.322 146.853L143.081 147.374L142.832 148.696L138.05 174.061L138.05 174.063C137.565 176.647 135.304 178.458 132.761 178.458C132.438 178.458 132.104 178.427 131.758 178.362L131.755 178.361C128.831 177.81 126.905 174.991 127.458 172.069L127.459 172.067L133.023 142.528L133.023 142.527C133.358 140.746 134.562 139.255 136.234 138.555L136.236 138.554L150.599 132.532L152.464 131.75L152.088 129.762L145.6 95.4218C148.552 93.7351 154.424 90.3737 155.533 89.6178L153.3 85.1921L127.796 94.1146C127.795 94.115 127.794 94.1153 127.793 94.1157C127.138 94.3414 126.456 94.3899 125.884 94.3049L125.87 94.3029L96.7919 90.1484L96.7916 90.1484C96.5668 90.1163 96.3392 90.0226 95.6866 89.718L92.8712 88.4037L92.1899 91.4352C92.0029 92.2672 91.7331 92.8577 91.3324 93.2997C89.805 94.9644 87.2352 95.0911 85.573 93.5796L85.5724 93.5789L65.8193 75.6286C65.7902 75.5927 65.7581 75.5551 65.723 75.5164L65.6629 75.45L65.5981 75.3882C65.2253 75.0321 64.9675 74.7107 64.7921 74.3813L64.7887 74.375L52.7372 51.9027L48.0788 53.555C48.1926 54.1489 48.7271 55.9865 49.3822 58.1829C50.0658 60.4748 50.95 63.3803 51.8385 66.2793C53.2049 70.7374 54.5901 75.2085 55.2723 77.4101C55.4762 78.0682 55.6172 78.5234 55.6762 78.715L55.6783 78.7219L55.6805 78.7288C56.3137 80.7448 57.5203 81.8079 58.4726 82.647C58.5954 82.7552 58.7139 82.8596 58.8265 82.962C58.8265 82.962 58.8266 82.962 58.8266 82.962L59.5096 83.5829L55.8047 103.212L55.5843 104.379L56.3507 105.288L68.7408 119.97L68.7411 119.971C69.5738 120.957 70.0262 122.216 70.0128 123.513C70.0128 123.514 70.0128 123.514 70.0128 123.515L69.6017 157.521L69.6017 157.522C69.5662 160.477 67.162 162.847 64.2112 162.847H64.211H64.2108H64.2106H64.2104H64.2102H64.21H64.2098H64.2097H64.2095H64.2093H64.2091H64.2089H64.2087H64.2085H64.2083H64.2081H64.2079H64.2077H64.2076H64.2074H64.2072H64.207H64.2068H64.2066H64.2064H64.2062H64.206H64.2058H64.2056H64.2054H64.2053H64.2051H64.2049H64.2047H64.2045H64.2043H64.2041H64.2039H64.2037H64.2035H64.2033H64.2032H64.203H64.2028H64.2026H64.2024H64.2022H64.202H64.2018H64.2016H64.2014H64.2012H64.2011H64.2009H64.2007H64.2005H64.2003H64.2001H64.1999H64.1997H64.1995H64.1993H64.1992H64.199H64.1988H64.1986H64.1984H64.1982H64.198H64.1978H64.1976H64.1974H64.1973H64.1971H64.1969H64.1967H64.1965H64.1963H64.1961H64.1959H64.1957H64.1955H64.1953H64.1952H64.195H64.1948H64.1946H64.1944H64.1942H64.194H64.1938H64.1936H64.1934H64.1933H64.1931H64.1929H64.1927H64.1925H64.1923H64.1921H64.1919H64.1917H64.1915H64.1914H64.1912H64.191H64.1908H64.1906H64.1904H64.1902H64.19H64.1898H64.1896H64.1895H64.1893H64.1891H64.1889H64.1887H64.1885H64.1883H64.1881H64.1879H64.1877H64.1876H64.1874H64.1872H64.187H64.1868H64.1866H64.1864H64.1862H64.186H64.1859H64.1857H64.1855H64.1853H64.1851H64.1849H64.1847H64.1845H64.1843H64.1841H64.184H64.1838H64.1836H64.1834H64.1832H64.183H64.1828H64.1826H64.1824H64.1822H64.1821H64.1819H64.1817H64.1815H64.1813H64.1811H64.1809H64.1807H64.1805H64.1804H64.1802H64.18H64.1798H64.1796H64.1794H64.1792H64.179H64.1788H64.1786H64.1785H64.1783H64.1781H64.1779H64.1777H64.1775H64.1773H64.1771H64.1769H64.1768H64.1766H64.1764H64.1762H64.176H64.1758H64.1756H64.1754H64.1752H64.1751H64.1749H64.1747H64.1745H64.1743H64.1741H64.1739H64.1737H64.1735H64.1734H64.1732H64.173H64.1728H64.1726H64.1724H64.1722H64.172H64.1718H64.1716H64.1715H64.1713H64.1711H64.1709H64.1707H64.1705H64.1703H64.1701H64.1699H64.1698H64.1696H64.1694H64.1692H64.169H64.1688H64.1686H64.1684H64.1682H64.1681H64.1679H64.1677H64.1675H64.1673H64.1671H64.1669H64.1667H64.1665H64.1664H64.1662H64.166H64.1658H64.1656H64.1654H64.1652H64.165H64.1648H64.1646H64.1645H64.1643H64.1641H64.1639H64.1637H64.1635H64.1633H64.1631H64.1629H64.1628H64.1626H64.1624H64.1622H64.162H64.1618H64.1616H64.1614H64.1612H64.1611H64.1609H64.1607H64.1605H64.1603H64.1601H64.1599H64.1597H64.1595H64.1594H64.1592H64.159H64.1588H64.1586H64.1584H64.1582H64.158H64.1578H64.1577H64.1575H64.1573H64.1571H64.1569H64.1567H64.1565H64.1563H64.1561H64.1559H64.1558H64.1556H64.1554H64.1552H64.155H64.1548H64.1546H64.1544H64.1542H64.1541H64.1539H64.1537H64.1535H64.1533H64.1531H64.1529H64.1527H64.1525H64.1524H64.1522H64.152H64.1518H64.1516H64.1514H64.1512H64.151H64.1508H64.1507H64.1505H64.1503H64.1501H64.1499H64.1497H64.1495H64.1493H64.1491H64.1489H64.1488H64.1486H64.1484H64.1482H64.148H64.1478H64.1476H64.1474H64.1472H64.1471H64.1469H64.1467H64.1465H64.1463H64.1461H64.1459H64.1457H64.1455H64.1454H64.1452H64.145H64.1448H64.1446H64.1444H64.1442H64.144H64.1438H64.1436H64.1435H64.1433H64.1431H64.1429H64.1427H64.1425H64.1423H64.1421H64.1419H64.1418H64.1416H64.1414H64.1412H64.141H64.1408H64.1406H64.1404H64.1402H64.14H64.1399H64.1397H64.1395H64.1393H64.1391H64.1389H64.1387H64.1385H64.1383H64.1381H64.138H64.1378H64.1376H64.1374H64.1372H64.137H64.1368H64.1366H64.1364H64.1363H64.1361H64.1359H64.1357H64.1355H64.1353H64.1351H64.1349H64.1347H64.1345H64.1344H64.1342H64.134H64.1338H64.1336H64.1334H64.1332H64.133H64.1328H64.1326H64.1325H64.1323H64.1321H64.1319H64.1317H64.1315H64.1313H64.1311H64.1309H64.1307H64.1306H64.1304H64.1302C61.1612 162.804 58.7854 160.364 58.8211 157.391L59.2 126.318L59.2113 125.386L58.6107 124.675L47.6765 111.719L41.8581 104.825L43.298 113.731L44.864 123.415C44.8642 123.416 44.8644 123.418 44.8646 123.419C45.0118 124.356 44.913 125.32 44.5779 126.208C44.5776 126.209 44.5773 126.21 44.5769 126.211L31.9346 159.376C30.8631 162.183 27.7292 163.549 24.9826 162.496L24.9783 162.494C22.1934 161.432 20.7995 158.318 21.8583 155.533L33.7513 124.34L33.9924 123.708L33.8816 123.04L30.0209 99.7889L30.0208 99.7885C29.6541 97.5823 29.6792 95.3288 30.0942 93.1309C30.0942 93.1308 30.0942 93.1307 30.0942 93.1307ZM66.0504 75.9604L66.0463 75.9537C66.0489 75.9579 66.0506 75.9608 66.0513 75.9619C66.0521 75.9632 66.0529 75.9647 66.0504 75.9604Z" stroke="#0080C7" stroke-opacity="0.9" stroke-width="5"/>
<path d="M152.446 60.6441L152.446 60.6441C159.441 59.322 164.037 52.5935 162.714 45.6068L162.713 45.6049C161.396 38.6199 154.659 34.0233 147.666 35.3411L152.446 60.6441ZM152.446 60.6441C145.463 61.9645 138.73 57.3712 137.412 50.3832L137.412 50.3831M152.446 60.6441L137.412 50.3831M137.412 50.3831C136.093 43.394 140.683 36.6621 147.666 35.3412L137.412 50.3831Z" stroke="#0080C7" stroke-opacity="0.9" stroke-width="5"/>
<path d="M112.279 183.56V186.06H114.779H153.153C153.897 186.06 154.5 186.665 154.5 187.403V197.5H12.0806V190.248V183.56V169.62H110.932C111.677 169.62 112.279 170.224 112.279 170.963V183.56Z" stroke="#0080C7" stroke-opacity="0.9" stroke-width="5"/>
</g>
<defs>
<clipPath id="clip0">
<rect width="200" height="200" fill="white"/>
</clipPath>
</defs>
</svg>
