<svg width="32" height="32" viewBox="0 0 32 32" fill="none" xmlns="http://www.w3.org/2000/svg">
<g clip-path="url(#clip0)">
<path d="M31.8848 25.115L30.0263 19.7061C30.9221 17.8747 31.3956 15.838 31.3988 13.7886C31.4043 10.2253 30.0256 6.85613 27.5168 4.30174C25.0074 1.74686 21.6635 0.308674 18.101 0.252237C14.4069 0.193862 10.9347 1.59899 8.32421 4.20937C5.80708 6.72644 4.41095 10.0448 4.36677 13.5908C1.88589 15.4586 0.421571 18.3708 0.426384 21.4814C0.428696 22.937 0.756322 24.384 1.37714 25.6924L0.0969457 29.4179C-0.123117 30.0584 0.037633 30.7537 0.516509 31.2326C0.85351 31.5697 1.29782 31.7491 1.75476 31.7491C1.94701 31.7491 2.14151 31.7174 2.3312 31.6522L6.05677 30.372C7.36521 30.9928 8.81215 31.3204 10.2678 31.3227C10.273 31.3227 10.278 31.3227 10.2833 31.3227C13.4402 31.3226 16.3745 29.8205 18.2356 27.2789C20.1723 27.2279 22.0885 26.759 23.8208 25.9116L29.2298 27.7702C29.4552 27.8477 29.6863 27.8854 29.9148 27.8854C30.4578 27.8854 30.9858 27.6722 31.3863 27.2715C31.9553 26.7025 32.1463 25.8762 31.8848 25.115ZM10.2832 29.418C10.2791 29.418 10.2748 29.418 10.2707 29.418C8.98234 29.416 7.7029 29.0984 6.57096 28.4995C6.33821 28.3765 6.06496 28.3552 5.81608 28.4407L1.99589 29.7534L3.30858 25.9332C3.39408 25.6843 3.37283 25.411 3.2497 25.1783C2.65083 24.0463 2.3332 22.767 2.3312 21.4785C2.32801 19.4061 3.1342 17.4418 4.54402 15.9709C5.00452 18.7781 6.34246 21.365 8.41634 23.402C10.4749 25.424 13.0625 26.7114 15.8545 27.1322C14.3803 28.5853 12.393 29.418 10.2832 29.418ZM30.0393 25.9247C29.9851 25.9789 29.9209 25.9936 29.8486 25.9687L24.0581 23.979C23.9576 23.9444 23.8529 23.9273 23.7487 23.9273C23.595 23.9273 23.4419 23.9645 23.3033 24.0378C21.65 24.9125 19.7817 25.3764 17.9004 25.3792C17.8942 25.3792 17.8885 25.3792 17.8824 25.3792C11.5784 25.3792 6.37133 20.2583 6.27146 13.9559C6.22115 10.7818 7.42852 7.79875 9.67109 5.55619C11.9137 3.31362 14.8972 2.10668 18.0709 2.15668C24.3794 2.25674 29.5038 7.47344 29.494 13.7856C29.4911 15.667 29.0273 17.5353 28.1527 19.1885C28.0296 19.4212 28.0083 19.6945 28.0938 19.9434L30.0835 25.7339C30.1083 25.8064 30.0934 25.8706 30.0393 25.9247Z" fill="#D2D1D1"/>
<path d="M23.5558 8.71924H12.2082C11.6822 8.71924 11.2559 9.14568 11.2559 9.67162C11.2559 10.1976 11.6823 10.624 12.2082 10.624H23.5558C24.0818 10.624 24.5081 10.1976 24.5081 9.67162C24.5081 9.14568 24.0818 8.71924 23.5558 8.71924Z" fill="#D2D1D1"/>
<path d="M23.5558 12.6362H12.2082C11.6822 12.6362 11.2559 13.0627 11.2559 13.5886C11.2559 14.1145 11.6823 14.541 12.2082 14.541H23.5558C24.0818 14.541 24.5081 14.1145 24.5081 13.5886C24.5081 13.0627 24.0818 12.6362 23.5558 12.6362Z" fill="#D2D1D1"/>
<path d="M19.1878 16.5532H12.2082C11.6822 16.5532 11.2559 16.9797 11.2559 17.5056C11.2559 18.0316 11.6823 18.458 12.2082 18.458H19.1878C19.7138 18.458 20.1401 18.0315 20.1401 17.5056C20.1401 16.9797 19.7138 16.5532 19.1878 16.5532Z" fill="#D2D1D1"/>
</g>
<defs>
<clipPath id="clip0">
<rect width="32" height="32" fill="white"/>
</clipPath>
</defs>
</svg>
