<svg width="75" height="102" viewBox="0 0 75 102" fill="none" xmlns="http://www.w3.org/2000/svg">
<path d="M43.9973 59.2141H30.2101C29.0563 59.2141 28.1211 60.4793 28.1211 62.0402V98.6377C28.1211 100.199 29.0563 101.464 30.2101 101.464H43.9973C45.1511 101.464 46.0863 100.199 46.0863 98.6377V62.0402C46.0863 60.4793 45.1511 59.2141 43.9973 59.2141ZM41.9083 95.8116H32.2991V64.8663H41.9083V95.8116Z" fill="#0080C7"/>
<path d="M71.3629 37.0294H57.4712C56.3174 37.0294 55.3822 38.2946 55.3822 39.8555V98.6377C55.3822 100.199 56.3174 101.464 57.4712 101.464H71.3629C72.5167 101.464 73.4519 100.199 73.4519 98.6377V39.8555C73.4519 38.2949 72.5167 37.0294 71.3629 37.0294ZM69.2739 95.8116H59.5602V42.6816H69.2739V95.8116Z" fill="#0080C7"/>
<path d="M16.7362 72.9205H2.84447C1.69073 72.9205 0.755493 74.1858 0.755493 75.7466V98.6377C0.755493 100.199 1.69073 101.464 2.84447 101.464H16.7362C17.89 101.464 18.8252 100.199 18.8252 98.6377V75.7466C18.8252 74.186 17.89 72.9205 16.7362 72.9205ZM14.6472 95.8116H4.93345V78.5726H14.6472V95.8116Z" fill="#0080C7"/>
<path d="M73.6608 2.83414C73.3431 2.24183 72.8433 1.87779 72.3029 1.84506L53.2932 0.00807464C52.1395 -0.109036 51.1341 1.06153 51.0475 2.6221C50.9609 4.18294 51.826 5.5431 52.9797 5.66021L66.4338 6.89623L41.6994 33.0733L22.7942 13.0082C21.987 12.1432 20.8344 12.2033 20.0785 13.1493L0.65118 38.301C-0.174694 39.361 -0.221076 41.1206 0.546821 42.2576C0.919474 42.9119 1.50364 43.2808 2.1136 43.2467C2.66459 43.2362 3.19018 42.9314 3.57583 42.3988L21.6455 18.9424L40.3417 38.866C41.1048 39.6926 42.1898 39.6926 42.9529 38.866L69.6922 10.7168L68.6472 28.2688C68.642 29.8034 69.5026 31.09 70.6318 31.236H70.7361C71.8129 31.2433 72.7174 30.142 72.8251 28.6926L74.183 4.81231C74.2595 4.07692 74.0644 3.33747 73.6608 2.83414Z" fill="#0080C7"/>
</svg>
