<svg width="32" height="32" viewBox="0 0 32 32" fill="none" xmlns="http://www.w3.org/2000/svg">
<path d="M25.2901 19.823C24.635 19.1409 23.8448 18.7761 23.0073 18.7761C22.1766 18.7761 21.3797 19.1341 20.6975 19.8162L18.5633 21.9437C18.3877 21.8491 18.2121 21.7613 18.0433 21.6735C17.8001 21.552 17.5705 21.4371 17.3747 21.3156C15.3755 20.0459 13.5587 18.3912 11.8163 16.2502C10.972 15.1831 10.4047 14.2849 9.99273 13.3731C10.5465 12.8666 11.0598 12.3398 11.5596 11.8332C11.7487 11.6441 11.9378 11.4482 12.1269 11.2591C13.5452 9.84084 13.5452 8.0038 12.1269 6.5855L10.2831 4.74171C10.0738 4.53234 9.85765 4.31622 9.65504 4.1001C9.24981 3.68136 8.82432 3.24911 8.38532 2.84389C7.7302 2.19552 6.94676 1.85107 6.12279 1.85107C5.29882 1.85107 4.50187 2.19552 3.82649 2.84389C3.81974 2.85064 3.81974 2.85064 3.81298 2.85739L1.51669 5.17395C0.652196 6.03844 0.159167 7.09204 0.0511064 8.31448C-0.110985 10.2866 0.469843 12.1236 0.915595 13.3258C2.00971 16.2772 3.64414 19.0125 6.08227 21.9437C9.04044 25.4759 12.5997 28.2653 16.6655 30.2306C18.2189 30.9668 20.2923 31.838 22.6089 31.9866C22.7507 31.9934 22.8993 32.0001 23.0344 32.0001C24.5945 32.0001 25.9047 31.4396 26.9313 30.3252C26.9381 30.3117 26.9516 30.3049 26.9583 30.2914C27.3095 29.8659 27.7147 29.4809 28.1402 29.069C28.4307 28.7921 28.7278 28.5016 29.0182 28.1977C29.6869 27.5021 30.0381 26.6916 30.0381 25.8609C30.0381 25.0234 29.6801 24.2197 28.998 23.5443L25.2901 19.823ZM27.708 26.9348C27.7012 26.9348 27.7012 26.9415 27.708 26.9348C27.4446 27.2184 27.1744 27.4751 26.884 27.7587C26.445 28.1775 25.9993 28.6165 25.5805 29.1095C24.8984 29.8389 24.0947 30.1833 23.0411 30.1833C22.9398 30.1833 22.8317 30.1833 22.7304 30.1766C20.7245 30.0483 18.8605 29.2648 17.4625 28.5962C13.6398 26.7456 10.2831 24.1184 7.49381 20.7888C5.19076 18.013 3.65089 15.4465 2.63107 12.691C2.00296 11.0093 1.77333 9.69901 1.87464 8.46306C1.94218 7.67287 2.2461 7.01775 2.80666 6.45718L5.10972 4.15413C5.44065 3.84345 5.79185 3.67461 6.1363 3.67461C6.56179 3.67461 6.90623 3.93125 7.12235 4.14737C7.12911 4.15413 7.13586 4.16088 7.14262 4.16763C7.5546 4.5526 7.94632 4.95108 8.3583 5.37657C8.56767 5.59269 8.78379 5.80881 8.99992 6.03169L10.8437 7.87548C11.5596 8.59139 11.5596 9.25326 10.8437 9.96916C10.6478 10.165 10.4587 10.3609 10.2629 10.55C9.69556 11.1308 9.15525 11.6711 8.56767 12.1979C8.55416 12.2114 8.54066 12.2182 8.5339 12.2317C7.95307 12.8125 8.06114 13.3798 8.1827 13.7648C8.18946 13.7851 8.19621 13.8053 8.20297 13.8256C8.68249 14.9873 9.35787 16.0814 10.3844 17.3849L10.3912 17.3916C12.2553 19.6879 14.2206 21.4777 16.3886 22.8487C16.6655 23.0243 16.9492 23.1661 17.2193 23.3012C17.4625 23.4228 17.6921 23.5376 17.8879 23.6592C17.915 23.6727 17.942 23.6929 17.969 23.7064C18.1986 23.8212 18.4147 23.8753 18.6376 23.8753C19.1982 23.8753 19.5494 23.5241 19.6642 23.4093L21.974 21.0995C22.2036 20.8698 22.5683 20.5929 22.9938 20.5929C23.4126 20.5929 23.757 20.8563 23.9664 21.0859C23.9731 21.0927 23.9731 21.0927 23.9799 21.0995L27.7012 24.8208C28.3969 25.5097 28.3969 26.2189 27.708 26.9348Z" fill="#D2D1D1"/>
<path d="M17.2936 7.61195C19.0631 7.90911 20.6705 8.74659 21.9537 10.0298C23.237 11.313 24.0677 12.9204 24.3716 14.6899C24.4459 15.1357 24.8309 15.4464 25.2699 15.4464C25.3239 15.4464 25.3712 15.4396 25.4252 15.4329C25.925 15.3518 26.2559 14.8791 26.1749 14.3793C25.8102 12.2383 24.7971 10.2865 23.2505 8.73983C21.7038 7.19321 19.752 6.18014 17.611 5.81543C17.1112 5.73438 16.6452 6.06532 16.5574 6.55835C16.4696 7.05138 16.7938 7.5309 17.2936 7.61195Z" fill="#D2D1D1"/>
<path d="M31.9629 14.1159C31.3618 10.5904 29.7004 7.38232 27.1474 4.82937C24.5945 2.27643 21.3864 0.61499 17.8609 0.0139004C17.3679 -0.0738993 16.9019 0.263792 16.8141 0.756821C16.733 1.2566 17.064 1.72262 17.5638 1.81042C20.711 2.34397 23.5814 3.83656 25.8642 6.1126C28.147 8.39539 29.6328 11.2658 30.1664 14.413C30.2407 14.8588 30.6256 15.1695 31.0646 15.1695C31.1187 15.1695 31.1659 15.1627 31.22 15.156C31.713 15.0817 32.0507 14.6089 31.9629 14.1159Z" fill="#D2D1D1"/>
</svg>
