<svg width="32" height="32" viewBox="0 0 32 32" fill="none" xmlns="http://www.w3.org/2000/svg">
<path d="M16 4C12.1459 4 9 7.14585 9 11C9 13.3931 10.2204 15.5178 12.0625 16.7812C8.48555 18.3029 6 21.8599 6 26H8C8 21.5333 11.5333 18 16 18C20.4667 18 24 21.5333 24 26H26C26 21.8599 23.5144 18.3029 19.9375 16.7812C21.7796 15.5178 23 13.3931 23 11C23 7.14585 19.8541 4 16 4ZM16 6C18.7733 6 21 8.22673 21 11C21 13.7733 18.7733 16 16 16C13.2267 16 11 13.7733 11 11C11 8.22673 13.2267 6 16 6Z" fill="#D2D1D1"/>
</svg>
