<svg width="75" height="75" viewBox="0 0 75 75" fill="none" xmlns="http://www.w3.org/2000/svg">
<path d="M64.0166 10.9834C56.9336 3.90073 47.5166 0 37.5 0C27.4834 0 18.0664 3.90073 10.9834 10.9834C3.90073 18.0664 0 27.4834 0 37.5C0 47.5166 3.90073 56.9336 10.9834 64.0166C18.0664 71.0993 27.4834 75 37.5 75C47.5166 75 56.9336 71.0993 64.0166 64.0166C71.0993 56.9336 75 47.5166 75 37.5C75 27.4834 71.0993 18.0664 64.0166 10.9834ZM70.5308 35.3027H66.091C65.0203 21.2396 53.7604 9.97969 39.6973 8.90903V4.46924C56.2044 5.55645 69.4436 18.7956 70.5308 35.3027ZM61.6793 39.6973C60.6303 51.3353 51.3353 60.6303 39.6973 61.6793V55.1514H35.3027V61.6793C23.6647 60.6303 14.3697 51.3353 13.3207 39.6973H19.8486V35.3027H13.3207C14.3697 23.6647 23.6647 14.3697 35.3027 13.3207V19.8486H39.6973V13.3207C51.3353 14.3697 60.6303 23.6647 61.6793 35.3027H55.1514V39.6973H61.6793ZM35.3027 4.46924V8.90903C21.2396 9.97969 9.97969 21.2396 8.90903 35.3027H4.46924C5.55645 18.7956 18.7956 5.55645 35.3027 4.46924ZM4.46924 39.6973H8.90903C9.97969 53.7604 21.2396 65.0203 35.3027 66.091V70.5308C18.7956 69.4436 5.55645 56.2044 4.46924 39.6973ZM39.6973 70.5308V66.091C53.7604 65.0203 65.0203 53.7605 66.091 39.6973H70.5308C69.4436 56.2044 56.2044 69.4436 39.6973 70.5308Z" fill="#0080C7"/>
<path d="M37.5 26.4771C31.4219 26.4771 26.4771 31.4219 26.4771 37.5C26.4771 43.5781 31.4219 48.5229 37.5 48.5229C43.5781 48.5229 48.5229 43.5781 48.5229 37.5C48.5229 31.4219 43.5781 26.4771 37.5 26.4771ZM37.5 44.1284C33.8451 44.1284 30.8716 41.1549 30.8716 37.5C30.8716 33.8451 33.8451 30.8716 37.5 30.8716C41.1549 30.8716 44.1284 33.8451 44.1284 37.5C44.1284 41.1549 41.1549 44.1284 37.5 44.1284Z" fill="#0080C7"/>
</svg>
