<svg width="76" height="102" viewBox="0 0 76 102" fill="none" xmlns="http://www.w3.org/2000/svg">
<path d="M74.7681 42.7193L62.7565 17.9403C62.4856 17.3818 62.0253 17.0453 61.5316 17.0453H13.5334C13.0407 17.0453 12.5811 17.3802 12.3101 17.937L0.279209 42.642C0.221927 42.7489 0.172264 42.8642 0.130804 42.9875C-0.106672 43.6958 -0.0158424 44.5264 0.363007 45.1115L6.46107 54.531C6.99419 55.3545 7.91948 55.4373 8.52804 54.7163C9.13661 53.9951 9.19784 52.7431 8.66488 51.92L4.69516 45.7877H24.3996L34.3011 91.52L23.1121 74.2367C22.5792 73.4132 21.6536 73.3303 21.0452 74.0514C20.4366 74.7726 20.3754 76.0246 20.9083 76.8477L36.4066 100.788C36.6846 101.217 37.0865 101.464 37.5085 101.464C37.9308 101.464 38.3323 101.217 38.6104 100.787L55.1107 75.2934C55.6438 74.4699 55.5824 73.218 54.9736 72.4971C54.3647 71.7759 53.4393 71.859 52.9066 72.6826L40.7163 91.5175L50.6174 45.7875H70.3136L61.2038 59.8632C60.6707 60.6867 60.732 61.9386 61.3409 62.6595C61.6188 62.9889 61.9628 63.1504 62.3053 63.1504C62.7129 63.1504 63.1184 62.9215 63.4079 62.474L74.6453 45.1113C75.0786 44.4418 75.1289 43.4635 74.7681 42.7193ZM4.18593 41.8243L13.5304 22.6351L22.8325 41.8243H4.18593ZM16.2457 21.0089H34.796L25.5209 40.1426L16.2457 21.0089ZM37.5084 22.6409L46.8075 41.8243H28.2093L37.5084 22.6409ZM37.5084 92.2341L27.4523 45.7877H47.5645L37.5084 92.2341ZM49.5199 40.1924L40.2209 21.0089H58.8193L49.5199 40.1924ZM52.2324 41.8243L61.5316 22.6409L70.8306 41.8243H52.2324Z" fill="#0080C7"/>
<path d="M23.0282 64.8069C19.2496 64.8069 16.1753 60.6478 16.1753 55.5358C16.1753 54.4414 15.5194 53.5541 14.7104 53.5541C13.9014 53.5541 13.2456 54.4414 13.2456 55.5358C13.2456 60.6478 10.1713 64.8069 6.39259 64.8069C5.58376 64.8069 4.92773 65.6942 4.92773 66.7886C4.92773 67.8831 5.58376 68.7704 6.39259 68.7704C10.1713 68.7704 13.2456 72.9295 13.2456 78.0415C13.2456 79.1359 13.9016 80.0232 14.7104 80.0232C15.5192 80.0232 16.1753 79.1359 16.1753 78.0415C16.1753 72.9295 19.2496 68.7704 23.0282 68.7704C23.8372 68.7704 24.4931 67.8831 24.4931 66.7886C24.4931 65.6942 23.8372 64.8069 23.0282 64.8069ZM14.7104 71.0817C13.9118 69.3412 12.8236 67.8692 11.5372 66.7886C12.8236 65.7083 13.9117 64.2363 14.7104 62.4956C15.509 64.2361 16.5972 65.7081 17.8836 66.7886C16.5972 67.8692 15.5091 69.341 14.7104 71.0817Z" fill="#0080C7"/>
<path d="M73.5432 7.92695C71.1201 7.92695 69.1486 5.25986 69.1486 1.98174C69.1486 0.887313 68.4926 0 67.6838 0C66.8749 0 66.2189 0.887313 66.2189 1.98174C66.2189 5.25986 64.2475 7.92695 61.8243 7.92695C61.0155 7.92695 60.3595 8.81427 60.3595 9.90869C60.3595 11.0031 61.0155 11.8904 61.8243 11.8904C64.2475 11.8904 66.2189 14.5575 66.2189 17.8356C66.2189 18.9301 66.8749 19.8174 67.6838 19.8174C68.4926 19.8174 69.1486 18.9301 69.1486 17.8356C69.1486 14.5575 71.1201 11.8904 73.5432 11.8904C74.352 11.8904 75.008 11.0031 75.008 9.90869C75.008 8.81427 74.352 7.92695 73.5432 7.92695ZM67.6838 11.8966C67.2658 11.1438 66.7708 10.4741 66.2144 9.90869C66.7708 9.34325 67.2658 8.67355 67.6838 7.92081C68.1017 8.67355 68.5967 9.34325 69.1532 9.90869C68.5967 10.4739 68.1016 11.1438 67.6838 11.8966Z" fill="#0080C7"/>
</svg>
