<svg width="21" height="18" viewBox="0 0 21 18" fill="none" xmlns="http://www.w3.org/2000/svg">
<path d="M20.4234 2.81639C20.1835 1.7078 19.4767 0.834703 18.5792 0.538406C16.9525 0 10.4296 0 10.4296 0C10.4296 0 3.90679 0 2.28006 0.538406C1.3826 0.83475 0.675774 1.7078 0.435875 2.81639C0 4.82578 0 9.01819 0 9.01819C0 9.01819 0 13.2106 0.435875 15.22C0.675774 16.3286 1.3826 17.1653 2.28006 17.4616C3.90679 18 10.4296 18 10.4296 18C10.4296 18 16.9525 18 18.5792 17.4616C19.4767 17.1653 20.1835 16.3286 20.4234 15.22C20.8593 13.2106 20.8593 9.01819 20.8593 9.01819C20.8593 9.01819 20.8593 4.82578 20.4234 2.81639ZM8.29629 12.8246V5.2118L13.7481 9.01828L8.29629 12.8246Z" fill="white"/>
</svg>
