<svg width="300" height="300" viewBox="0 0 300 300" fill="none" xmlns="http://www.w3.org/2000/svg">
<path d="M173.437 167.573C219.638 167.573 257.224 129.987 257.224 83.7866C257.224 37.5862 219.638 0 173.437 0C127.237 0 89.6509 37.5862 89.6509 83.7866C89.6509 129.987 127.238 167.573 173.437 167.573ZM173.437 17.5776C209.946 17.5776 239.646 47.2785 239.646 83.7866C239.646 120.295 209.946 149.996 173.437 149.996C136.929 149.996 107.228 120.295 107.228 83.7866C107.228 47.2785 136.93 17.5776 173.437 17.5776Z" fill="#0080C7" fill-opacity="0.8"/>
<path d="M183.195 75.1852C178.816 73.6361 171.674 71.034 168.096 68.228C167.879 68.0575 167.474 67.0374 167.759 65.5216C167.896 64.7939 168.525 62.3647 170.883 61.654C174.524 60.5507 177.979 61.2755 180.247 62.9547C183.826 66.2142 189.37 65.9664 192.643 62.3946C195.912 58.8269 195.679 53.2923 192.132 50.0088C192.132 50.0088 188.06 46.3831 182.237 44.6676V43.944C182.237 39.0902 178.302 35.1552 173.448 35.1552C168.594 35.1552 164.659 39.0902 164.659 43.944V45.2154C148.862 50.9609 145.147 72.5709 157.25 82.0604C162.763 86.3833 170.642 89.3885 177.33 91.7556C181.687 93.2966 182.13 96.4207 181.735 98.7709C181.295 101.386 179.042 105.822 173.389 105.859C167.528 105.896 166.138 105.681 161.861 102.882C157.799 100.224 152.352 101.36 149.694 105.422C147.035 109.484 148.173 114.931 152.234 117.589C156.906 120.647 160.607 122.163 164.659 122.872V123.718C164.659 128.571 168.594 132.506 173.447 132.506C178.301 132.506 182.236 128.571 182.236 123.718V121.878C203.53 114.182 206.356 83.3776 183.195 75.1852Z" fill="#0080C7" fill-opacity="0.8"/>
<path d="M254.323 171.096L153.569 194.023C151.263 191.929 148.616 190.17 145.684 188.85L93.9481 165.641C78.8999 158.869 61.6762 158.951 46.737 165.847L5.15421 184.769C0.735784 186.779 -1.21592 191.99 0.794962 196.408C2.80525 200.827 8.01643 202.779 12.4343 200.767L54.0604 181.826C64.4206 177.044 76.3301 176.988 86.7442 181.674L138.48 204.884C143.001 206.918 145.899 211.44 145.899 216.359C145.899 225.455 136.537 231.609 128.152 227.834L83.4173 207.704C78.9895 205.711 73.7877 207.685 71.7962 212.111C69.8041 216.538 71.778 221.741 76.2041 223.733L120.939 243.863C143.439 253.989 168.071 234.182 162.784 209.951C228.41 195.018 258.599 188.159 259.018 188.035C270.864 184.533 282.419 193.429 282.419 205.499C282.419 211.904 278.996 217.911 273.506 221.163L178.819 276.931C168.83 282.849 156.818 284.043 145.861 280.205L73.2188 254.781C71.2612 254.096 69.1244 254.125 67.1868 254.864L5.66513 278.3C1.12894 280.028 -1.14678 285.107 0.581101 289.642C2.30898 294.178 7.38715 296.455 11.9228 294.726L70.4433 272.433L140.052 296.794C155.603 302.241 173.027 300.793 187.759 292.065L282.446 236.298C293.272 229.884 299.996 218.083 299.996 205.499C299.996 181.933 277.428 164.466 254.323 171.096Z" fill="#0080C7" fill-opacity="0.8"/>
</svg>
