<svg width="300" height="300" viewBox="0 0 300 300" fill="none" xmlns="http://www.w3.org/2000/svg">
<path d="M236.875 184.811C230.988 172.536 209.925 155.498 189.576 139.035C178.225 129.86 167.5 121.185 160.663 114.348C158.95 112.623 156.388 112.073 154.126 112.886C149.913 114.411 147.313 115.586 145.263 116.498C142.139 117.898 141.089 118.373 136.876 118.798C135.013 118.985 133.338 119.985 132.301 121.535C123.463 134.747 114.313 133.622 108.201 131.573C106.251 130.923 105.901 130.085 105.713 129.285C104.401 123.798 110.988 111.023 119.526 102.485C139.838 82.1601 150.313 77.0724 172.438 86.9601C197.538 98.1849 222.688 106.973 222.938 107.06C226.226 108.197 229.763 106.472 230.901 103.21C232.026 99.9474 230.313 96.3849 227.05 95.2476C226.8 95.1603 202.15 86.5476 177.55 75.5349C148.888 62.7222 133.163 71.1597 110.7 93.6351C102.15 102.185 90.5374 119.485 93.5374 132.173C94.8247 137.573 98.6251 141.573 104.275 143.435C118.437 148.11 131.362 143.635 140.987 130.86C144.962 130.248 147.125 129.348 150.375 127.886C151.549 127.361 152.925 126.748 154.75 126.011C161.9 132.723 171.55 140.535 181.712 148.748C200.087 163.61 220.925 180.461 225.612 190.211C227.925 195.023 225.437 198.161 223.75 199.598C221.275 201.723 217.887 202.398 216.05 201.11C214.025 199.723 211.388 199.635 209.3 200.885C207.2 202.135 206.025 204.497 206.288 206.923C206.712 210.898 203.075 213.173 201.5 213.96C197.5 215.985 193.325 215.636 191.762 214.185C190.012 212.561 187.5 212.085 185.275 212.91C183.05 213.748 181.5 215.798 181.275 218.173C180.9 222.272 177.862 226.21 173.899 227.747C171.987 228.472 169.212 228.91 166.725 226.635C165.175 225.235 163.024 224.697 161.012 225.185C158.975 225.684 157.337 227.16 156.625 229.122C156.387 229.747 155.85 231.247 150 231.247C145.837 231.247 138.349 228.435 134.687 226.01C130.3 223.122 102.787 202.597 79.0249 182.697C75.6874 179.885 69.9124 173.859 64.8124 168.534C60.2872 163.809 56.1499 159.522 54.0247 157.722C51.3622 155.472 47.4247 155.81 45.2122 158.46C42.9874 161.097 43.312 165.047 45.9499 167.272C47.8876 168.91 51.6376 172.872 55.7749 177.185C61.3501 183.009 67.1122 189.035 70.9876 192.285C94.2628 211.772 122.238 232.81 127.812 236.472C132.413 239.497 142.325 243.747 150 243.747C156.162 243.747 160.9 242.334 164.187 239.572C168.587 241.285 173.588 241.297 178.4 239.422C184.088 237.222 188.762 232.785 191.412 227.41C196.337 228.46 201.975 227.722 207.1 225.148C212.112 222.623 215.737 218.76 217.537 214.247C222.512 214.51 227.637 212.747 231.874 209.11C239.05 202.973 241.025 193.423 236.875 184.811Z" fill="#0080C7" fill-opacity="0.8"/>
<path d="M125 81.2478H68.7497C65.2997 81.2478 62.4995 84.048 62.4995 87.498C62.4995 90.948 65.2997 93.7482 68.7497 93.7482H125C128.45 93.7482 131.25 90.948 131.25 87.498C131.25 84.048 128.45 81.2478 125 81.2478Z" fill="#0080C7" fill-opacity="0.8"/>
<path d="M255.188 171.51C253.25 168.648 249.375 167.861 246.513 169.811L228.238 182.085C225.376 184.01 224.613 187.898 226.538 190.76C227.75 192.548 229.726 193.523 231.738 193.523C232.926 193.523 234.138 193.185 235.214 192.461L253.488 180.186C256.35 178.26 257.112 174.373 255.188 171.51Z" fill="#0080C7" fill-opacity="0.8"/>
<path d="M216.387 201.336C211.912 197.811 191.9 177.323 179.525 164.423C177.137 161.923 173.175 161.836 170.687 164.236C168.187 166.624 168.112 170.586 170.499 173.074C173.712 176.423 202.049 205.961 208.637 211.161C209.774 212.061 211.149 212.499 212.499 212.499C214.337 212.499 216.174 211.674 217.424 210.111C219.562 207.411 219.1 203.473 216.387 201.336Z" fill="#0080C7" fill-opacity="0.8"/>
<path d="M191.412 213.873C183.925 207.885 165.112 187.898 160.862 183.273C158.512 180.723 154.574 180.573 152.024 182.898C149.487 185.235 149.312 189.198 151.649 191.736C151.874 191.973 174.325 216.211 183.599 223.636C184.75 224.548 186.137 224.998 187.499 224.998C189.325 224.998 191.149 224.186 192.387 222.661C194.538 219.96 194.1 216.023 191.412 213.873Z" fill="#0080C7" fill-opacity="0.8"/>
<path d="M166.538 226.461C157.625 218.948 139.388 199.536 135.825 195.723C133.463 193.198 129.5 193.061 126.987 195.423C124.463 197.786 124.337 201.735 126.687 204.261C131.813 209.748 149.262 228.248 158.475 236.023C159.65 237.011 161.075 237.498 162.5 237.498C164.275 237.498 166.05 236.736 167.288 235.273C169.512 232.623 169.175 228.686 166.538 226.461Z" fill="#0080C7" fill-opacity="0.8"/>
<path d="M73.05 70.4608C62.3373 60.3106 19.5 57.0229 6.6252 56.2606C4.85039 56.1733 3.2127 56.7604 1.96289 57.9481C0.7125 59.1229 0 60.7729 0 62.4979V174.998C0 178.448 2.8002 181.248 6.2502 181.248H43.7502C46.4502 181.248 48.8502 179.511 49.6875 176.936C50.5998 174.135 72.1377 108.036 74.9748 75.5356C75.1377 73.6354 74.4375 71.7604 73.05 70.4608ZM39.1875 168.748H12.4998V69.1981C32.5875 70.7854 54.2625 74.2354 62.1375 78.0604C58.8252 105.435 43.8375 154.073 39.1875 168.748Z" fill="#0080C7" fill-opacity="0.8"/>
<path d="M293.75 68.748C244.675 68.748 217.45 81.3105 216.312 81.8355C214.688 82.5979 213.475 84.0105 212.975 85.7232C212.475 87.4359 212.725 89.2734 213.662 90.798C221.387 103.236 245.575 172.311 250.225 189.161C250.975 191.873 253.438 193.748 256.25 193.748H293.75C297.2 193.748 300 190.948 300 187.498V74.9977C300 71.5354 297.2 68.748 293.75 68.748ZM287.5 181.248H260.925C255 161.948 237.5 111.623 227.738 90.8232C237.275 87.5859 257.763 82.0231 287.5 81.3234V181.248Z" fill="#0080C7" fill-opacity="0.8"/>
</svg>
